# xmcd
#
# Track frame offsets:
#	150
#	18123
#	46874
#	98026
#	128203
#	159009
#	179053
#	222997
#
# Disc length: 4273 seconds
#
# Revision: 0
# Processed by: cddbd v1.5.2PL0 Copyright (c) Steve Scherf et al.
# Submitted via: audiograbber 1.83.01
#
DISCID=5f10af08
DTITLE=Grateful Dead - 94-07-02 Shoreline Amphitheatre, Mountain View CA
DYEAR=1900
DGENRE=
TTITLE0=Help On The Way
TTITLE1=Slipknot!
TTITLE2=Franklin's Tower
TTITLE3=If The Shoe Fits
TTITLE4=Truckin'
TTITLE5=Smokestack Lightning
TTITLE6=He's Gone
TTITLE7=Drums
EXTD=
EXTT0=
EXTT1=
EXTT2=
EXTT3=
EXTT4=
EXTT5=
EXTT6=
EXTT7=
PLAYORDER=
